<svg xmlns="http://www.w3.org/2000/svg" xmlns:xlink="http://www.w3.org/1999/xlink" width="1080" zoomAndPan="magnify" viewBox="0 0 810 809.999993" height="1080" preserveAspectRatio="xMidYMid meet" version="1.2"><defs><clipPath id="8a57cbabe4"><path d="M 49.335938 50 L 760 50 L 760 760 L 49.335938 760 Z M 49.335938 50 "/></clipPath><clipPath id="ba16dcb7d8"><path d="M 123 414.605469 L 361 414.605469 L 361 430.355469 L 123 430.355469 Z M 123 414.605469 "/></clipPath></defs><g id="a04889ffe8"><path style=" stroke:none;fill-rule:nonzero;fill:#000000;fill-opacity:1;" d="M 575.242188 255.484375 L 688.847656 280.976562 C 689.402344 280.976562 690.507812 280.976562 691.0625 280.976562 C 696.050781 280.976562 700.484375 277.652344 701.59375 272.109375 C 702.699219 266.015625 699.375 260.472656 693.28125 258.8125 L 579.675781 233.320312 C 573.578125 232.210938 568.039062 235.535156 566.375 241.632812 C 565.820312 248.28125 569.144531 254.378906 575.242188 255.484375 Z M 575.242188 255.484375 "/><path style=" stroke:none;fill-rule:nonzero;fill:#000000;fill-opacity:1;" d="M 554.738281 295.386719 C 553.628906 301.480469 556.953125 307.023438 563.050781 308.6875 L 676.65625 334.179688 C 677.210938 334.179688 678.316406 334.179688 678.871094 334.179688 C 683.859375 334.179688 688.292969 330.851562 689.402344 325.3125 C 690.507812 319.214844 687.183594 313.675781 681.089844 312.011719 L 567.484375 286.519531 C 561.941406 285.964844 555.847656 289.84375 554.738281 295.386719 Z M 554.738281 295.386719 "/><path style=" stroke:none;fill-rule:nonzero;fill:#000000;fill-opacity:1;" d="M 541.992188 348.585938 C 540.882812 354.683594 544.207031 360.222656 550.304688 361.886719 L 663.910156 387.378906 C 664.464844 387.378906 665.570312 387.378906 666.125 387.378906 C 671.113281 387.378906 675.546875 384.054688 676.65625 378.511719 C 677.761719 372.414062 674.4375 366.875 668.34375 365.210938 L 554.738281 339.71875 C 549.195312 339.164062 543.65625 343.042969 541.992188 348.585938 Z M 541.992188 348.585938 "/><path style=" stroke:none;fill-rule:nonzero;fill:#000000;fill-opacity:1;" d="M 529.800781 402.339844 C 528.691406 408.4375 532.015625 413.980469 538.113281 415.640625 L 651.71875 441.132812 C 652.273438 441.132812 653.378906 441.132812 653.933594 441.132812 C 658.921875 441.132812 663.355469 437.808594 664.464844 432.265625 C 665.570312 426.171875 662.246094 420.628906 656.152344 418.964844 L 543.101562 394.027344 C 537.003906 392.367188 530.910156 396.246094 529.800781 402.339844 Z M 529.800781 402.339844 "/><path style=" stroke:none;fill-rule:nonzero;fill:#000000;fill-opacity:1;" d="M 535.34375 549.195312 L 611.261719 566.375 C 611.816406 566.375 612.925781 566.375 613.480469 566.375 C 618.46875 566.375 622.902344 563.050781 624.007812 557.507812 C 625.117188 551.414062 621.792969 545.871094 615.695312 544.207031 L 502.644531 518.714844 L 522.042969 532.570312 C 528.691406 537.003906 532.570312 542.546875 535.34375 549.195312 Z M 535.34375 549.195312 "/><path style=" stroke:none;fill-rule:nonzero;fill:#000000;fill-opacity:1;" d="M 603.503906 597.964844 L 537.003906 583 L 537.003906 605.722656 L 599.070312 619.574219 C 599.625 619.574219 600.734375 619.574219 601.289062 619.574219 C 606.277344 619.574219 610.707031 616.25 611.816406 610.710938 C 613.480469 605.167969 609.601562 599.625 603.503906 597.964844 Z M 603.503906 597.964844 "/><path style=" stroke:none;fill-rule:nonzero;fill:#000000;fill-opacity:1;" d="M 481.585938 481.03125 L 623.453125 513.175781 C 624.007812 513.175781 625.117188 513.175781 625.671875 513.175781 C 630.660156 513.175781 635.09375 509.851562 636.199219 504.308594 C 637.308594 498.210938 633.984375 492.671875 627.886719 491.007812 L 481.03125 457.757812 L 481.03125 481.03125 Z M 481.585938 481.03125 "/><path style=" stroke:none;fill-rule:nonzero;fill:#000000;fill-opacity:1;" d="M 460.527344 173.46875 C 450.554688 171.253906 441.132812 172.359375 432.265625 175.132812 C 435.589844 181.226562 437.253906 188.429688 437.253906 195.636719 L 437.253906 196.742188 C 441.132812 195.082031 445.011719 193.972656 449.445312 193.972656 C 451.664062 193.972656 453.878906 193.972656 455.542969 194.527344 C 462.746094 196.191406 468.839844 200.625 472.71875 206.71875 C 476.601562 212.816406 477.707031 220.019531 476.046875 227.222656 C 473.273438 239.414062 462.191406 247.726562 449.445312 248.28125 L 458.867188 251.605469 C 464.960938 253.824219 470.503906 258.257812 474.382812 263.246094 C 485.464844 256.59375 494.332031 245.511719 497.105469 232.210938 C 499.875 219.464844 497.660156 206.164062 491.007812 195.082031 C 484.914062 184 473.828125 176.238281 460.527344 173.46875 Z M 460.527344 173.46875 "/><path style=" stroke:none;fill-rule:nonzero;fill:#000000;fill-opacity:1;" d="M 481.585938 301.480469 L 481.585938 325.3125 C 485.464844 327.527344 489.347656 330.851562 491.5625 334.730469 C 495.441406 340.828125 496.550781 348.03125 494.886719 355.238281 L 481.585938 413.425781 L 481.585938 436.144531 L 487.683594 437.253906 C 488.238281 437.253906 489.347656 437.253906 489.898438 437.253906 C 494.886719 437.253906 499.320312 433.929688 500.429688 428.941406 L 516.5 359.671875 C 519.269531 346.925781 517.054688 333.625 510.402344 322.539062 C 503.753906 312.566406 493.777344 304.808594 481.585938 301.480469 Z M 481.585938 301.480469 "/><g clip-rule="nonzero" clip-path="url(#8a57cbabe4)"><path style=" stroke:none;fill-rule:nonzero;fill:#000000;fill-opacity:1;" d="M 63.742188 640.632812 L 385.160156 758.117188 C 387.933594 759.226562 390.148438 759.226562 392.921875 759.226562 C 397.355469 759.226562 401.785156 757.5625 405.667969 755.347656 C 411.207031 751.46875 415.085938 744.816406 415.085938 738.167969 L 415.085938 195.636719 C 415.085938 186.214844 409.546875 177.902344 400.679688 174.578125 L 120.824219 72.609375 L 479.371094 72.609375 L 479.371094 115.835938 L 537.003906 115.835938 L 537.003906 145.207031 L 364.65625 106.414062 C 362.441406 105.859375 360.222656 105.859375 357.453125 105.859375 C 350.804688 105.859375 344.707031 107.523438 339.71875 110.847656 C 334.730469 114.171875 330.300781 118.605469 327.527344 124.703125 L 348.585938 132.460938 C 350.804688 129.691406 354.128906 128.027344 357.453125 128.027344 C 358.5625 128.027344 359.117188 128.027344 360.222656 128.027344 L 728.191406 211.152344 C 734.289062 212.261719 738.167969 218.355469 736.503906 224.453125 L 627.335938 693.28125 L 537.003906 672.777344 C 537.003906 680.535156 533.679688 688.292969 528.691406 693.835938 L 622.347656 714.894531 C 624.007812 715.445312 625.671875 715.445312 627.335938 715.445312 C 637.308594 715.445312 646.730469 708.242188 648.945312 698.269531 L 758.117188 229.441406 C 760.335938 220.574219 758.671875 211.707031 753.683594 204.503906 C 749.25 196.742188 741.492188 191.757812 732.625 189.539062 L 559.171875 150.746094 L 559.171875 116.390625 C 559.171875 104.199219 549.195312 94.222656 537.003906 94.222656 L 501.539062 94.222656 L 501.539062 72.609375 C 501.539062 60.417969 491.5625 50.441406 479.371094 50.441406 L 71.5 50.441406 C 59.308594 50.441406 49.335938 60.417969 49.335938 72.609375 L 49.335938 74.828125 C 49.335938 75.933594 49.335938 77.042969 49.335938 78.152344 L 49.335938 620.128906 C 49.335938 629.550781 55.429688 637.863281 63.742188 640.632812 Z M 63.742188 640.632812 "/></g><path style=" stroke:none;fill-rule:nonzero;fill:#000000;fill-opacity:1;" d="M 448.335938 726.53125 C 450.554688 726.53125 452.769531 725.976562 454.433594 724.867188 C 457.757812 722.652344 459.421875 719.328125 459.421875 715.445312 L 459.421875 683.304688 L 503.753906 683.304688 C 509.851562 683.304688 514.835938 678.316406 514.835938 672.222656 L 514.835938 560.28125 C 514.835938 556.398438 513.175781 553.074219 509.851562 551.414062 L 459.421875 515.945312 L 459.421875 283.195312 C 459.421875 278.761719 456.648438 274.328125 452.214844 272.664062 L 437.253906 267.125 L 437.253906 722.652344 L 443.902344 725.421875 C 445.566406 726.53125 446.675781 726.53125 448.335938 726.53125 Z M 448.335938 726.53125 "/><g clip-rule="nonzero" clip-path="url(#ba16dcb7d8)"><path style=" stroke:none;fill-rule:nonzero;fill:#000000;fill-opacity:1;" d="M 352.417969 414.605469 L 131.804688 414.605469 C 127.453125 414.605469 123.925781 418.128906 123.925781 422.480469 C 123.925781 426.828125 127.453125 430.355469 131.804688 430.355469 L 352.417969 430.355469 C 356.769531 430.355469 360.296875 426.828125 360.296875 422.480469 C 360.296875 418.128906 356.769531 414.605469 352.417969 414.605469 Z M 352.417969 414.605469 "/></g></g></svg>